<svg width="33" height="33" viewBox="0 0 33 33" fill="none" xmlns="http://www.w3.org/2000/svg">
<path d="M27.5 24.0625C28.0297 24.0628 28.5389 24.2668 28.9223 24.6323C29.3056 24.9978 29.5336 25.4968 29.5591 26.0259C29.5846 26.5549 29.4055 27.0735 29.059 27.4742C28.7125 27.8748 28.2252 28.1268 27.698 28.1779L27.5 28.1875H5.5C4.97033 28.1872 4.46106 27.9832 4.07772 27.6177C3.69438 27.2522 3.46636 26.7532 3.4409 26.2241C3.41545 25.6951 3.59451 25.1765 3.94099 24.7758C4.28747 24.3752 4.7748 24.1232 5.302 24.0721L5.5 24.0625H27.5ZM27.5 14.4375C28.047 14.4375 28.5716 14.6548 28.9584 15.0416C29.3452 15.4284 29.5625 15.953 29.5625 16.5C29.5625 17.047 29.3452 17.5716 28.9584 17.9584C28.5716 18.3452 28.047 18.5625 27.5 18.5625H5.5C4.95299 18.5625 4.42839 18.3452 4.04159 17.9584C3.6548 17.5716 3.4375 17.047 3.4375 16.5C3.4375 15.953 3.6548 15.4284 4.04159 15.0416C4.42839 14.6548 4.95299 14.4375 5.5 14.4375H27.5ZM27.5 4.8125C28.047 4.8125 28.5716 5.0298 28.9584 5.41659C29.3452 5.80339 29.5625 6.32799 29.5625 6.875C29.5625 7.42201 29.3452 7.94661 28.9584 8.33341C28.5716 8.7202 28.047 8.9375 27.5 8.9375H5.5C4.95299 8.9375 4.42839 8.7202 4.04159 8.33341C3.6548 7.94661 3.4375 7.42201 3.4375 6.875C3.4375 6.32799 3.6548 5.80339 4.04159 5.41659C4.42839 5.0298 4.95299 4.8125 5.5 4.8125H27.5Z" fill="#5A5A5A"/>
</svg>
