<svg width="41" height="41" viewBox="0 0 41 41" fill="none" xmlns="http://www.w3.org/2000/svg">
<path d="M24.3438 33.3125C24.3437 34.3319 23.9388 35.3096 23.2179 36.0304C22.4971 36.7513 21.5194 37.1562 20.5 37.1562C19.4806 37.1562 18.5029 36.7513 17.7821 36.0304C17.0612 35.3096 16.6562 34.3319 16.6562 33.3125C16.6562 32.2931 17.0612 31.3154 17.7821 30.5946C18.5029 29.8737 19.4806 29.4688 20.5 29.4688C21.5194 29.4688 22.4971 29.8737 23.2179 30.5946C23.9388 31.3154 24.3438 32.2931 24.3438 33.3125ZM24.3438 20.5C24.3437 21.5194 23.9388 22.4971 23.2179 23.2179C22.4971 23.9388 21.5194 24.3437 20.5 24.3438C19.4806 24.3437 18.5029 23.9388 17.7821 23.2179C17.0612 22.4971 16.6562 21.5194 16.6562 20.5C16.6562 19.4806 17.0612 18.5029 17.7821 17.7821C18.5029 17.0612 19.4806 16.6562 20.5 16.6562C21.5194 16.6562 22.4971 17.0612 23.2179 17.7821C23.9388 18.5029 24.3438 19.4806 24.3438 20.5ZM24.3438 7.6875C24.3437 8.70693 23.9388 9.6846 23.2179 10.4054C22.4971 11.1263 21.5194 11.5312 20.5 11.5312C19.4806 11.5312 18.5029 11.1263 17.7821 10.4054C17.0612 9.6846 16.6562 8.70693 16.6562 7.6875C16.6562 6.66807 17.0612 5.6904 17.7821 4.96956C18.5029 4.24872 19.4806 3.84375 20.5 3.84375C21.5194 3.84375 22.4971 4.24872 23.2179 4.96956C23.9388 5.6904 24.3438 6.66807 24.3438 7.6875Z" fill="#5A5A5A"/>
</svg>
